HIERARCHY
ROOT Hips
{
  OFFSET 0 0 0
  CHANNELS 6 Xposition Yposition Zposition Zrotation Yrotation Xrotation
  JOINT LeftThigh
  {
    OFFSET 8.409438 0 -5.917753
    CHANNELS 3 Zrotation Yrotation Xrotation
    JOINT LeftLeg
    {
      OFFSET 0 0 -42.358652
      CHANNELS 3 Zrotation Yrotation Xrotation
      JOINT LeftFoot
      {
        OFFSET 0 0 -39.357303
        CHANNELS 3 Zrotation Yrotation Xrotation
      }
    }
  }
  JOINT RightThigh
  {
    OFFSET -8.409438 0 -5.917753
    CHANNELS 3 Zrotation Yrotation Xrotation
    JOINT RightLeg
    {
      OFFSET 0 0 -42.358652
      CHANNELS 3 Zrotation Yrotation Xrotation
      JOINT RightFoot
      {
        OFFSET 0 0 -39.357303
        CHANNELS 3 Zrotation Yrotation Xrotation
      }
    }
  }
  JOINT SpineLow
  {
    OFFSET 0 0 4.719101
    CHANNELS 3 Zrotation Yrotation Xrotation
    JOINT SpineMid
    {
      OFFSET 0 0 12.899191
      CHANNELS 3 Zrotation Yrotation Xrotation
      JOINT Chest
      {
        OFFSET 0 0 12.899191
        CHANNELS 3 Zrotation Yrotation Xrotation
        JOINT LeftShoulder
        {
          OFFSET 7.550562 1.41573 9.438202
          CHANNELS 3 Zrotation Yrotation Xrotation
          JOINT LeftArm
          {
            OFFSET 9.155056 0 4.247191
            CHANNELS 3 Zrotation Yrotation Xrotation
            JOINT LeftForearm
            {
              OFFSET 0 0 25.771955
              CHANNELS 3 Zrotation Yrotation Xrotation
              JOINT LeftHand
              {
                OFFSET 0 0 25.197169
                CHANNELS 3 Zrotation Yrotation Xrotation
              }
            }
          }
        }
        JOINT RightShoulder
        {
          OFFSET -7.550562 1.41573 9.438202
          CHANNELS 3 Zrotation Yrotation Xrotation
          JOINT RightArm
          {
            OFFSET -9.155056 0 4.247191
            CHANNELS 3 Zrotation Yrotation Xrotation
            JOINT RightForearm
            {
              OFFSET 0 0 -25.771955
              CHANNELS 3 Zrotation Yrotation Xrotation
              JOINT RightHand
              {
                OFFSET 0 0 -25.197169
                CHANNELS 3 Zrotation Yrotation Xrotation
              }
            }
          }
        }
        JOINT Neck
        {
          OFFSET 0 0 15.101124
          CHANNELS 3 Zrotation Yrotation Xrotation
          JOINT Head
          {
            OFFSET 0 0 11.325843
            CHANNELS 3 Zrotation Yrotation Xrotation
            End Site
            {
              OFFSET 0 0 14.157303
            }
          }
        }
      }
    }
  }
}
MOTION
Frames: 8
Frame Time: 0.0
0.0  101.685394  0.0  5.644747  28.332271  -86.897586  0.024147  -17.388979  30.250132  7.223262  13.442373  23.394958  -5.504583  2.482919  -5.853701  -28.598008  3.960807  -57.513379  5.658013  11.10762  63.143236  30.366529  6.035441  3.900296  -9.794257  0.871955  -0.740742  -26.803559  2.041842  -2.336662  -26.80356  2.041842  -2.336662  9.447514  31.875369  16.004295  147.483695  50.765718  -169.668884  -56.73973  -30.783485  114.453473  64.194942  -5.692043  -12.366381  39.746186  -2.744392  36.027343  118.952731  63.707886  26.779419  -28.798877  5.013387  -101.907495  77.442048  -0.284515  50.897755  8.258021  -3.42618  -6.71024  6.1549  -2.661235  -4.985919  
0.0  101.685394  0.0  5.270131  28.066432  -86.989388  -0.234654  -17.162979  30.598421  7.268338  13.080131  22.763407  -5.562985  2.503866  -5.498398  -28.204416  3.275838  -57.184644  6.031146  10.786093  62.959409  29.83885  6.136332  3.981677  -9.89995  0.796153  -0.737966  -27.088565  1.835698  -2.301249  -27.088565  1.835698  -2.301249  9.565496  31.907124  15.817405  148.053425  51.351952  -169.587836  -57.491784  -31.086747  116.147881  64.951879  -4.219442  -13.12728  39.718205  -2.503056  36.03644  119.290189  63.506417  27.143523  -29.034196  5.576747  -103.251841  77.470884  -2.448896  49.651031  8.629646  -3.388374  -6.824373  6.433434  -2.638631  -5.070096  
0.0  101.685394  0.0  4.882272  27.683849  -87.053507  -0.458629  -16.768563  30.945645  7.168534  12.579504  21.935925  -5.45246  2.541221  -5.042551  -27.768324  2.511201  -56.804431  6.273753  10.76886  62.571427  29.087331  6.248692  4.080498  -9.988033  0.714204  -0.738107  -27.32535  1.612721  -2.270148  -27.325351  1.612721  -2.270147  9.630875  31.894692  15.524124  148.720918  52.070298  -169.589238  -58.227188  -31.194738  117.857835  65.730667  -2.610548  -13.882252  39.653883  -2.286057  35.813882  119.504902  63.211853  27.39595  -29.293676  6.206283  -104.560909  77.696997  -4.499069  48.395599  8.992335  -3.347586  -6.918306  6.70543  -2.613526  -5.139272  
0.0  101.685394  0.0  4.442662  27.152267  -87.074251  -0.697724  -16.188393  31.228644  7.256038  11.996741  21.192328  -5.336512  2.449965  -4.626665  -27.231376  1.673349  -56.392389  6.317183  11.195709  62.045499  29.297974  6.19823  4.301991  -10.051414  0.621647  -0.744892  -27.494413  1.359634  -2.25149  -27.494414  1.359634  -2.25149  9.542123  31.795949  15.060529  149.446334  52.768428  -169.81757  -58.941866  -31.163454  119.550587  66.484158  -1.091502  -14.732245  39.523635  -2.090016  35.610501  119.849338  63.049511  27.790755  -29.627029  6.865693  -105.777771  78.2182  -6.469902  46.960177  9.327181  -3.318698  -6.976714  6.956595  -2.596593  -5.181809  
0.0  101.685394  0.0  3.913555  26.516304  -87.107233  -1.003913  -15.430525  31.440875  7.416231  11.246329  20.474607  -5.091901  2.301951  -4.17049  -26.647035  0.703577  -55.807599  6.293435  11.888365  61.411532  29.535653  6.163073  4.428172  -10.09918  0.516381  -0.758108  -27.620504  1.070493  -2.244151  -27.620504  1.070493  -2.244151  9.495742  31.618673  14.509639  150.079218  53.400544  -170.303565  -59.550979  -31.015767  121.156041  67.092434  0.091328  -15.778268  39.398819  -1.9387  35.371352  120.031282  62.978611  28.090623  -29.971037  7.497913  -106.975109  79.060875  -8.554483  45.2376  9.673853  -3.270704  -6.967247  7.217222  -2.564445  -5.173736  
0.0  101.685394  0.0  3.281447  25.854112  -87.173974  -1.421828  -14.496101  31.589264  7.639034  10.323619  19.803191  -4.690797  2.088449  -3.671054  -26.171366  -0.43443  -55.033265  6.192648  12.698662  60.591146  29.904496  6.162115  4.609795  -10.152836  0.396437  -0.780638  -27.762366  0.73803  -2.255326  -27.762365  0.73803  -2.255326  9.582652  31.403273  14.020941  150.660308  53.969404  -170.968597  -60.252604  -30.808018  122.848115  67.523296  0.948133  -16.804834  39.359518  -1.846393  35.174377  119.962155  63.024885  28.267952  -30.214926  8.025771  -108.20176  80.002659  -10.504094  43.328628  10.067741  -3.185838  -6.890662  7.514055  -2.504053  -5.115786  
0.0  101.685394  0.0  2.538812  25.15599  -87.334338  -1.932066  -13.421342  31.728499  7.909734  9.272747  19.212861  -4.073371  1.799364  -3.097083  -25.703507  -1.625828  -54.029938  6.028496  13.435704  59.559232  30.129906  6.218087  4.837764  -10.206287  0.267747  -0.800949  -27.903528  0.383119  -2.256408  -27.903526  0.383119  -2.256408  9.789052  31.171682  13.637571  151.1696  54.54423  -171.772876  -60.993183  -30.610249  124.578159  67.956218  1.598484  -17.801806  39.420596  -1.824245  35.053836  119.90969  63.17926  28.532169  -30.405474  8.42916  -109.351088  80.906852  -12.35412  41.447959  10.50177  -3.070308  -6.762988  7.841593  -2.420126  -5.019984  
0.0  101.685394  0.0  1.686088  24.387255  -87.641759  -2.491126  -12.233957  31.885932  8.143018  8.182191  18.817649  -3.172124  1.411716  -2.577088  -25.350405  -2.784302  -52.722309  5.881559  13.81662  58.268256  30.393417  6.220772  5.124579  -10.25035  0.135502  -0.805815  -28.019236  0.025537  -2.214153  -28.019238  0.025537  -2.214153  10.016752  30.898797  13.307833  151.696035  55.100671  -172.665349  -61.742068  -30.503519  126.270024  68.358583  2.155025  -18.83697  39.585692  -1.832756  34.984469  119.825647  63.423668  28.784553  -30.602297  8.813043  -110.353428  81.730845  -14.282486  39.685525  10.943765  -2.94114  -6.585898  8.175445  -2.324979  -4.887492  
